<mxfile host="Electron" agent="Mozilla/5.0 (X11; Linux x86_64) AppleWebKit/537.36 (KHTML, like Gecko) draw.io/24.7.5 Chrome/126.0.6478.183 Electron/31.3.0 Safari/537.36" version="24.7.5">
  <diagram name="Страница — 1" id="C4lTX8faZ_tCJOhsqmsd">
    <mxGraphModel dx="989" dy="585" grid="1" gridSize="10" guides="1" tooltips="1" connect="1" arrows="1" fold="1" page="1" pageScale="1" pageWidth="827" pageHeight="1169" math="0" shadow="0">
      <root>
        <mxCell id="0" />
        <mxCell id="1" parent="0" />
        <mxCell id="rDvQQFMUDoH9ufIweod8-1" value="Vertical Container" style="swimlane;whiteSpace=wrap;html=1;fillColor=#dae8fc;strokeColor=#6c8ebf;" vertex="1" parent="1">
          <mxGeometry x="280" y="240" width="670" height="370" as="geometry" />
        </mxCell>
        <mxCell id="rDvQQFMUDoH9ufIweod8-33" style="edgeStyle=orthogonalEdgeStyle;rounded=0;orthogonalLoop=1;jettySize=auto;html=1;exitX=1;exitY=0.5;exitDx=0;exitDy=0;entryX=0;entryY=0.5;entryDx=0;entryDy=0;dashed=1;" edge="1" parent="rDvQQFMUDoH9ufIweod8-1" source="rDvQQFMUDoH9ufIweod8-5" target="rDvQQFMUDoH9ufIweod8-24">
          <mxGeometry relative="1" as="geometry">
            <Array as="points">
              <mxPoint x="240" y="55" />
              <mxPoint x="240" y="193" />
            </Array>
          </mxGeometry>
        </mxCell>
        <mxCell id="rDvQQFMUDoH9ufIweod8-5" value="" style="ellipse;whiteSpace=wrap;html=1;fillColor=#fff2cc;strokeColor=#d6b656;" vertex="1" parent="rDvQQFMUDoH9ufIweod8-1">
          <mxGeometry x="60" y="30" width="120" height="50" as="geometry" />
        </mxCell>
        <mxCell id="rDvQQFMUDoH9ufIweod8-38" style="edgeStyle=orthogonalEdgeStyle;rounded=0;orthogonalLoop=1;jettySize=auto;html=1;exitX=1;exitY=0.5;exitDx=0;exitDy=0;dashed=1;endArrow=none;endFill=0;" edge="1" parent="rDvQQFMUDoH9ufIweod8-1" source="rDvQQFMUDoH9ufIweod8-6">
          <mxGeometry relative="1" as="geometry">
            <mxPoint x="240" y="130" as="targetPoint" />
            <Array as="points">
              <mxPoint x="240" y="125" />
            </Array>
          </mxGeometry>
        </mxCell>
        <mxCell id="rDvQQFMUDoH9ufIweod8-6" value="" style="ellipse;whiteSpace=wrap;html=1;fillColor=#fff2cc;strokeColor=#d6b656;" vertex="1" parent="rDvQQFMUDoH9ufIweod8-1">
          <mxGeometry x="60" y="100" width="120" height="50" as="geometry" />
        </mxCell>
        <mxCell id="rDvQQFMUDoH9ufIweod8-39" style="edgeStyle=orthogonalEdgeStyle;rounded=0;orthogonalLoop=1;jettySize=auto;html=1;exitX=1;exitY=0.5;exitDx=0;exitDy=0;dashed=1;endArrow=none;endFill=0;" edge="1" parent="rDvQQFMUDoH9ufIweod8-1" source="rDvQQFMUDoH9ufIweod8-7">
          <mxGeometry relative="1" as="geometry">
            <mxPoint x="239.99999999999977" y="170" as="targetPoint" />
            <Array as="points">
              <mxPoint x="240" y="195" />
            </Array>
          </mxGeometry>
        </mxCell>
        <mxCell id="rDvQQFMUDoH9ufIweod8-7" value="" style="ellipse;whiteSpace=wrap;html=1;fillColor=#fff2cc;strokeColor=#d6b656;" vertex="1" parent="rDvQQFMUDoH9ufIweod8-1">
          <mxGeometry x="60" y="170" width="120" height="50" as="geometry" />
        </mxCell>
        <mxCell id="rDvQQFMUDoH9ufIweod8-40" style="edgeStyle=orthogonalEdgeStyle;rounded=0;orthogonalLoop=1;jettySize=auto;html=1;exitX=1;exitY=0.5;exitDx=0;exitDy=0;dashed=1;endArrow=none;endFill=0;" edge="1" parent="rDvQQFMUDoH9ufIweod8-1" source="rDvQQFMUDoH9ufIweod8-11">
          <mxGeometry relative="1" as="geometry">
            <mxPoint x="239.99999999999977" y="190" as="targetPoint" />
          </mxGeometry>
        </mxCell>
        <mxCell id="rDvQQFMUDoH9ufIweod8-11" value="" style="ellipse;whiteSpace=wrap;html=1;fillColor=#fff2cc;strokeColor=#d6b656;" vertex="1" parent="rDvQQFMUDoH9ufIweod8-1">
          <mxGeometry x="60" y="310" width="120" height="50" as="geometry" />
        </mxCell>
        <mxCell id="rDvQQFMUDoH9ufIweod8-41" style="edgeStyle=orthogonalEdgeStyle;rounded=0;orthogonalLoop=1;jettySize=auto;html=1;exitX=1;exitY=0.5;exitDx=0;exitDy=0;dashed=1;endArrow=none;endFill=0;" edge="1" parent="rDvQQFMUDoH9ufIweod8-1" source="rDvQQFMUDoH9ufIweod8-13">
          <mxGeometry relative="1" as="geometry">
            <mxPoint x="239.99999999999977" y="200" as="targetPoint" />
          </mxGeometry>
        </mxCell>
        <mxCell id="rDvQQFMUDoH9ufIweod8-13" value="" style="ellipse;whiteSpace=wrap;html=1;fillColor=#fff2cc;strokeColor=#d6b656;" vertex="1" parent="rDvQQFMUDoH9ufIweod8-1">
          <mxGeometry x="60" y="240" width="120" height="50" as="geometry" />
        </mxCell>
        <mxCell id="rDvQQFMUDoH9ufIweod8-32" style="edgeStyle=orthogonalEdgeStyle;rounded=0;orthogonalLoop=1;jettySize=auto;html=1;exitX=0;exitY=0.5;exitDx=0;exitDy=0;entryX=1;entryY=0.5;entryDx=0;entryDy=0;dashed=1;" edge="1" parent="rDvQQFMUDoH9ufIweod8-1" source="rDvQQFMUDoH9ufIweod8-18" target="rDvQQFMUDoH9ufIweod8-24">
          <mxGeometry relative="1" as="geometry" />
        </mxCell>
        <mxCell id="rDvQQFMUDoH9ufIweod8-18" value="" style="ellipse;whiteSpace=wrap;html=1;fillColor=#ffe6cc;strokeColor=#d79b00;" vertex="1" parent="rDvQQFMUDoH9ufIweod8-1">
          <mxGeometry x="530" y="30" width="120" height="40" as="geometry" />
        </mxCell>
        <mxCell id="rDvQQFMUDoH9ufIweod8-42" style="edgeStyle=orthogonalEdgeStyle;rounded=0;orthogonalLoop=1;jettySize=auto;html=1;exitX=0;exitY=0.5;exitDx=0;exitDy=0;dashed=1;endArrow=none;endFill=0;" edge="1" parent="rDvQQFMUDoH9ufIweod8-1" source="rDvQQFMUDoH9ufIweod8-19">
          <mxGeometry relative="1" as="geometry">
            <mxPoint x="469.9999999999998" y="200" as="targetPoint" />
          </mxGeometry>
        </mxCell>
        <mxCell id="rDvQQFMUDoH9ufIweod8-19" value="" style="ellipse;whiteSpace=wrap;html=1;fillColor=#ffe6cc;strokeColor=#d79b00;" vertex="1" parent="rDvQQFMUDoH9ufIweod8-1">
          <mxGeometry x="530" y="80" width="120" height="40" as="geometry" />
        </mxCell>
        <mxCell id="rDvQQFMUDoH9ufIweod8-43" style="edgeStyle=orthogonalEdgeStyle;rounded=0;orthogonalLoop=1;jettySize=auto;html=1;exitX=0;exitY=0.5;exitDx=0;exitDy=0;dashed=1;endArrow=none;endFill=0;" edge="1" parent="rDvQQFMUDoH9ufIweod8-1" source="rDvQQFMUDoH9ufIweod8-20">
          <mxGeometry relative="1" as="geometry">
            <mxPoint x="469.9999999999998" y="200" as="targetPoint" />
          </mxGeometry>
        </mxCell>
        <mxCell id="rDvQQFMUDoH9ufIweod8-20" value="" style="ellipse;whiteSpace=wrap;html=1;fillColor=#ffe6cc;strokeColor=#d79b00;" vertex="1" parent="rDvQQFMUDoH9ufIweod8-1">
          <mxGeometry x="530" y="140" width="120" height="40" as="geometry" />
        </mxCell>
        <mxCell id="rDvQQFMUDoH9ufIweod8-44" style="edgeStyle=orthogonalEdgeStyle;rounded=0;orthogonalLoop=1;jettySize=auto;html=1;exitX=0;exitY=0.5;exitDx=0;exitDy=0;dashed=1;endArrow=none;endFill=0;" edge="1" parent="rDvQQFMUDoH9ufIweod8-1" source="rDvQQFMUDoH9ufIweod8-21">
          <mxGeometry relative="1" as="geometry">
            <mxPoint x="469.9999999999998" y="190" as="targetPoint" />
          </mxGeometry>
        </mxCell>
        <mxCell id="rDvQQFMUDoH9ufIweod8-21" value="" style="ellipse;whiteSpace=wrap;html=1;fillColor=#ffe6cc;strokeColor=#d79b00;" vertex="1" parent="rDvQQFMUDoH9ufIweod8-1">
          <mxGeometry x="530" y="200" width="120" height="40" as="geometry" />
        </mxCell>
        <mxCell id="rDvQQFMUDoH9ufIweod8-45" style="edgeStyle=orthogonalEdgeStyle;rounded=0;orthogonalLoop=1;jettySize=auto;html=1;exitX=0;exitY=0.5;exitDx=0;exitDy=0;endArrow=none;endFill=0;dashed=1;" edge="1" parent="rDvQQFMUDoH9ufIweod8-1" source="rDvQQFMUDoH9ufIweod8-22">
          <mxGeometry relative="1" as="geometry">
            <mxPoint x="469.9999999999998" y="220" as="targetPoint" />
          </mxGeometry>
        </mxCell>
        <mxCell id="rDvQQFMUDoH9ufIweod8-22" value="" style="ellipse;whiteSpace=wrap;html=1;fillColor=#ffe6cc;strokeColor=#d79b00;" vertex="1" parent="rDvQQFMUDoH9ufIweod8-1">
          <mxGeometry x="530" y="270" width="120" height="40" as="geometry" />
        </mxCell>
        <mxCell id="rDvQQFMUDoH9ufIweod8-46" style="edgeStyle=orthogonalEdgeStyle;rounded=0;orthogonalLoop=1;jettySize=auto;html=1;exitX=0;exitY=0.5;exitDx=0;exitDy=0;dashed=1;endArrow=none;endFill=0;" edge="1" parent="rDvQQFMUDoH9ufIweod8-1" source="rDvQQFMUDoH9ufIweod8-23">
          <mxGeometry relative="1" as="geometry">
            <mxPoint x="469.9999999999998" y="290" as="targetPoint" />
          </mxGeometry>
        </mxCell>
        <mxCell id="rDvQQFMUDoH9ufIweod8-23" value="" style="ellipse;whiteSpace=wrap;html=1;fillColor=#ffe6cc;strokeColor=#d79b00;" vertex="1" parent="rDvQQFMUDoH9ufIweod8-1">
          <mxGeometry x="530" y="320" width="120" height="40" as="geometry" />
        </mxCell>
        <mxCell id="rDvQQFMUDoH9ufIweod8-24" value="Авторизоваться" style="ellipse;whiteSpace=wrap;html=1;fillColor=#d5e8d4;strokeColor=#82b366;" vertex="1" parent="rDvQQFMUDoH9ufIweod8-1">
          <mxGeometry x="290" y="160" width="120" height="65" as="geometry" />
        </mxCell>
        <mxCell id="rDvQQFMUDoH9ufIweod8-8" style="edgeStyle=orthogonalEdgeStyle;rounded=0;orthogonalLoop=1;jettySize=auto;html=1;exitX=0.5;exitY=0.5;exitDx=0;exitDy=0;exitPerimeter=0;entryX=0;entryY=0.5;entryDx=0;entryDy=0;" edge="1" parent="1" source="rDvQQFMUDoH9ufIweod8-2" target="rDvQQFMUDoH9ufIweod8-5">
          <mxGeometry relative="1" as="geometry" />
        </mxCell>
        <mxCell id="rDvQQFMUDoH9ufIweod8-9" style="edgeStyle=orthogonalEdgeStyle;rounded=0;orthogonalLoop=1;jettySize=auto;html=1;exitX=0.5;exitY=0.5;exitDx=0;exitDy=0;exitPerimeter=0;entryX=0;entryY=0.5;entryDx=0;entryDy=0;" edge="1" parent="1" source="rDvQQFMUDoH9ufIweod8-2" target="rDvQQFMUDoH9ufIweod8-6">
          <mxGeometry relative="1" as="geometry" />
        </mxCell>
        <mxCell id="rDvQQFMUDoH9ufIweod8-10" style="edgeStyle=orthogonalEdgeStyle;rounded=0;orthogonalLoop=1;jettySize=auto;html=1;exitX=0.5;exitY=0.5;exitDx=0;exitDy=0;exitPerimeter=0;entryX=0;entryY=0.5;entryDx=0;entryDy=0;" edge="1" parent="1" source="rDvQQFMUDoH9ufIweod8-2" target="rDvQQFMUDoH9ufIweod8-7">
          <mxGeometry relative="1" as="geometry" />
        </mxCell>
        <mxCell id="rDvQQFMUDoH9ufIweod8-2" value="Администратор" style="shape=umlActor;verticalLabelPosition=bottom;verticalAlign=top;html=1;outlineConnect=0;fillColor=#dae8fc;strokeColor=#6c8ebf;" vertex="1" parent="1">
          <mxGeometry x="180" y="300" width="30" height="60" as="geometry" />
        </mxCell>
        <mxCell id="rDvQQFMUDoH9ufIweod8-14" style="edgeStyle=orthogonalEdgeStyle;rounded=0;orthogonalLoop=1;jettySize=auto;html=1;exitX=0.5;exitY=0.5;exitDx=0;exitDy=0;exitPerimeter=0;entryX=0;entryY=0.5;entryDx=0;entryDy=0;" edge="1" parent="1" source="rDvQQFMUDoH9ufIweod8-3" target="rDvQQFMUDoH9ufIweod8-13">
          <mxGeometry relative="1" as="geometry" />
        </mxCell>
        <mxCell id="rDvQQFMUDoH9ufIweod8-15" style="edgeStyle=orthogonalEdgeStyle;rounded=0;orthogonalLoop=1;jettySize=auto;html=1;exitX=0.5;exitY=0.5;exitDx=0;exitDy=0;exitPerimeter=0;entryX=0;entryY=0.5;entryDx=0;entryDy=0;" edge="1" parent="1" source="rDvQQFMUDoH9ufIweod8-3" target="rDvQQFMUDoH9ufIweod8-11">
          <mxGeometry relative="1" as="geometry" />
        </mxCell>
        <mxCell id="rDvQQFMUDoH9ufIweod8-3" value="Сотрудник" style="shape=umlActor;verticalLabelPosition=bottom;verticalAlign=top;html=1;outlineConnect=0;fillColor=#dae8fc;strokeColor=#6c8ebf;" vertex="1" parent="1">
          <mxGeometry x="180" y="500" width="30" height="60" as="geometry" />
        </mxCell>
        <mxCell id="rDvQQFMUDoH9ufIweod8-25" style="edgeStyle=orthogonalEdgeStyle;rounded=0;orthogonalLoop=1;jettySize=auto;html=1;exitX=0.5;exitY=0.5;exitDx=0;exitDy=0;exitPerimeter=0;entryX=1;entryY=0.5;entryDx=0;entryDy=0;" edge="1" parent="1" source="rDvQQFMUDoH9ufIweod8-4" target="rDvQQFMUDoH9ufIweod8-18">
          <mxGeometry relative="1" as="geometry" />
        </mxCell>
        <mxCell id="rDvQQFMUDoH9ufIweod8-26" style="edgeStyle=orthogonalEdgeStyle;rounded=0;orthogonalLoop=1;jettySize=auto;html=1;exitX=0.5;exitY=0.5;exitDx=0;exitDy=0;exitPerimeter=0;entryX=1;entryY=0.5;entryDx=0;entryDy=0;" edge="1" parent="1" source="rDvQQFMUDoH9ufIweod8-4" target="rDvQQFMUDoH9ufIweod8-19">
          <mxGeometry relative="1" as="geometry" />
        </mxCell>
        <mxCell id="rDvQQFMUDoH9ufIweod8-27" style="edgeStyle=orthogonalEdgeStyle;rounded=0;orthogonalLoop=1;jettySize=auto;html=1;exitX=0.5;exitY=0.5;exitDx=0;exitDy=0;exitPerimeter=0;entryX=1;entryY=0.5;entryDx=0;entryDy=0;" edge="1" parent="1" source="rDvQQFMUDoH9ufIweod8-4" target="rDvQQFMUDoH9ufIweod8-20">
          <mxGeometry relative="1" as="geometry" />
        </mxCell>
        <mxCell id="rDvQQFMUDoH9ufIweod8-28" style="edgeStyle=orthogonalEdgeStyle;rounded=0;orthogonalLoop=1;jettySize=auto;html=1;exitX=0.5;exitY=0.5;exitDx=0;exitDy=0;exitPerimeter=0;entryX=1;entryY=0.5;entryDx=0;entryDy=0;" edge="1" parent="1" source="rDvQQFMUDoH9ufIweod8-4" target="rDvQQFMUDoH9ufIweod8-21">
          <mxGeometry relative="1" as="geometry" />
        </mxCell>
        <mxCell id="rDvQQFMUDoH9ufIweod8-29" style="edgeStyle=orthogonalEdgeStyle;rounded=0;orthogonalLoop=1;jettySize=auto;html=1;exitX=0.5;exitY=0.5;exitDx=0;exitDy=0;exitPerimeter=0;entryX=1;entryY=0.5;entryDx=0;entryDy=0;" edge="1" parent="1" source="rDvQQFMUDoH9ufIweod8-4" target="rDvQQFMUDoH9ufIweod8-22">
          <mxGeometry relative="1" as="geometry" />
        </mxCell>
        <mxCell id="rDvQQFMUDoH9ufIweod8-30" style="edgeStyle=orthogonalEdgeStyle;rounded=0;orthogonalLoop=1;jettySize=auto;html=1;exitX=0.5;exitY=0.5;exitDx=0;exitDy=0;exitPerimeter=0;entryX=1;entryY=0.5;entryDx=0;entryDy=0;" edge="1" parent="1" source="rDvQQFMUDoH9ufIweod8-4" target="rDvQQFMUDoH9ufIweod8-23">
          <mxGeometry relative="1" as="geometry" />
        </mxCell>
        <mxCell id="rDvQQFMUDoH9ufIweod8-4" value="Заказчик" style="shape=umlActor;verticalLabelPosition=bottom;verticalAlign=top;html=1;outlineConnect=0;fillColor=#fff2cc;strokeColor=#d6b656;" vertex="1" parent="1">
          <mxGeometry x="1000" y="390" width="30" height="60" as="geometry" />
        </mxCell>
      </root>
    </mxGraphModel>
  </diagram>
</mxfile>
